HIERARCHY
ROOT Hips
{
	OFFSET 0.000000 102.714745 0.000000
	CHANNELS 6 Xposition Yposition Zposition Xrotation Yrotation Zrotation 
	JOINT Spine
	{
		OFFSET 0.000000 5.645699 -0.031900
		CHANNELS 3 Xrotation Yrotation Zrotation
		JOINT Spine1
		{
			OFFSET 0.000000 4.704791 -0.026605
			CHANNELS 3 Xrotation Yrotation Zrotation
			JOINT Spine1_split
			{
				OFFSET 0.000000 4.704791 -0.026605
				CHANNELS 3 Xrotation Yrotation Zrotation
				JOINT Spine2
				{
					OFFSET 0.000000 4.704791 -0.026605
					CHANNELS 3 Xrotation Yrotation Zrotation
					JOINT Neck
					{
						OFFSET 0.000000 8.468559 -0.047889
						CHANNELS 3 Xrotation Yrotation Zrotation
						JOINT Head
						{
							OFFSET 0.000000 5.998901 -1.159000
							CHANNELS 3 Xrotation Yrotation Zrotation
							JOINT HeadTop_End
							{
								OFFSET 0.000000 21.748795 -4.201800
								CHANNELS 3 Xrotation Yrotation Zrotation
								End Site
								{
									OFFSET 0.000000 0.000000 0.000000
								}
							}
						}
					}
					JOINT LeftShoulder
					{
						OFFSET 1.707350 3.671589 -0.029462
						CHANNELS 3 Xrotation Yrotation Zrotation
						JOINT LeftShoulder_split
						{
							OFFSET 1.707350 3.671589 -0.029462
							CHANNELS 3 Xrotation Yrotation Zrotation
							JOINT LeftArm
							{
								OFFSET 6.833681 -2.234299 -0.022073
								CHANNELS 3 Xrotation Yrotation Zrotation
								JOINT LeftForeArm
								{
									OFFSET 24.203604 0.000000 0.000001
									CHANNELS 3 Xrotation Yrotation Zrotation
									JOINT LeftHand
									{
										OFFSET 21.595112 0.000000 0.000001
										CHANNELS 3 Xrotation Yrotation Zrotation
										JOINT LeftHandThumb1
										{
											OFFSET 2.307610 -1.154526 1.889843
											CHANNELS 3 Xrotation Yrotation Zrotation
											JOINT LeftHandThumb2
											{
												OFFSET 1.981960 -1.144287 1.144286
												CHANNELS 3 Xrotation Yrotation Zrotation
												JOINT LeftHandThumb3
												{
													OFFSET 2.405823 -1.389000 1.389003
													CHANNELS 3 Xrotation Yrotation Zrotation
													JOINT LeftHandThumb4
													{
														OFFSET 2.095798 -1.210007 1.210009
														CHANNELS 3 Xrotation Yrotation Zrotation
														End Site
														{
															OFFSET 0.000000 0.000000 0.000000
														}
													}
												}
											}
										}
										JOINT LeftHandIndex1
										{
											OFFSET 7.339149 -0.166130 1.755469
											CHANNELS 3 Xrotation Yrotation Zrotation
											JOINT LeftHandIndex2
											{
												OFFSET 3.000099 0.000000 0.000000
												CHANNELS 3 Xrotation Yrotation Zrotation
												JOINT LeftHandIndex3
												{
													OFFSET 2.748604 0.000000 0.000000
													CHANNELS 3 Xrotation Yrotation Zrotation
													JOINT LeftHandIndex4
													{
														OFFSET 2.334297 0.000000 0.000000
														CHANNELS 3 Xrotation Yrotation Zrotation
														End Site
														{
															OFFSET 0.000000 0.000000 0.000000
														}
													}
												}
											}
										}
										JOINT LeftHandMiddle1
										{
											OFFSET 7.429375 0.000000 0.000000
											CHANNELS 3 Xrotation Yrotation Zrotation
											JOINT LeftHandMiddle2
											{
												OFFSET 3.379601 0.000000 0.000000
												CHANNELS 3 Xrotation Yrotation Zrotation
												JOINT LeftHandMiddle3
												{
													OFFSET 3.190804 0.000000 0.000000
													CHANNELS 3 Xrotation Yrotation Zrotation
													JOINT LeftHandMiddle4
													{
														OFFSET 2.752007 0.000000 0.000000
														CHANNELS 3 Xrotation Yrotation Zrotation
														End Site
														{
															OFFSET 0.000000 0.000000 0.000000
														}
													}
												}
											}
										}
										JOINT LeftHandRing1
										{
											OFFSET 7.390202 -0.186775 -1.720850
											CHANNELS 3 Xrotation Yrotation Zrotation
											JOINT LeftHandRing2
											{
												OFFSET 2.845203 0.000000 0.000000
												CHANNELS 3 Xrotation Yrotation Zrotation
												JOINT LeftHandRing3
												{
													OFFSET 2.681000 0.000000 0.000000
													CHANNELS 3 Xrotation Yrotation Zrotation
													JOINT LeftHandRing4
													{
														OFFSET 2.280701 0.000000 0.000000
														CHANNELS 3 Xrotation Yrotation Zrotation
														End Site
														{
															OFFSET 0.000000 0.000000 0.000000
														}
													}
												}
											}
										}
										JOINT LeftHandPinky1
										{
											OFFSET 7.037655 -0.101418 -3.301136
											CHANNELS 3 Xrotation Yrotation Zrotation
											JOINT LeftHandPinky2
											{
												OFFSET 2.480198 0.000000 0.000000
												CHANNELS 3 Xrotation Yrotation Zrotation
												JOINT LeftHandPinky3
												{
													OFFSET 1.951103 0.000000 0.000000
													CHANNELS 3 Xrotation Yrotation Zrotation
													JOINT LeftHandPinky4
													{
														OFFSET 1.659500 0.000000 0.000000
														CHANNELS 3 Xrotation Yrotation Zrotation
														End Site
														{
															OFFSET 0.000000 0.000000 0.000000
														}
													}
												}
											}
										}
									}
								}
							}
						}
					}
					JOINT RightShoulder
					{
						OFFSET -1.707350 3.671559 -0.018412
						CHANNELS 3 Xrotation Yrotation Zrotation
						JOINT RightShoulder_split
						{
							OFFSET -1.707350 3.671559 -0.018412
							CHANNELS 3 Xrotation Yrotation Zrotation
							JOINT RightArm
							{
								OFFSET -6.833705 -2.234222 0.022066
								CHANNELS 3 Xrotation Yrotation Zrotation
								JOINT RightForeArm
								{
									OFFSET -24.202705 0.000000 -0.000001
									CHANNELS 3 Xrotation Yrotation Zrotation
									JOINT RightHand
									{
										OFFSET -21.595596 0.000000 -0.000001
										CHANNELS 3 Xrotation Yrotation Zrotation
										JOINT RightHandThumb1
										{
											OFFSET -2.350891 -1.235085 1.890874
											CHANNELS 3 Xrotation Yrotation Zrotation
											JOINT RightHandThumb2
											{
												OFFSET -2.020119 -1.166313 1.166315
												CHANNELS 3 Xrotation Yrotation Zrotation
												JOINT RightHandThumb3
												{
													OFFSET -2.370068 -1.368362 1.368359
													CHANNELS 3 Xrotation Yrotation Zrotation
													JOINT RightHandThumb4
													{
														OFFSET -2.055340 -1.186646 1.186648
														CHANNELS 3 Xrotation Yrotation Zrotation
														End Site
														{
															OFFSET 0.000000 0.000000 0.000000
														}
													}
												}
											}
										}
										JOINT RightHandIndex1
										{
											OFFSET -7.350540 -0.173004 1.735458
											CHANNELS 3 Xrotation Yrotation Zrotation
											JOINT RightHandIndex2
											{
												OFFSET -2.949303 0.000000 -0.000000
												CHANNELS 3 Xrotation Yrotation Zrotation
												JOINT RightHandIndex3
												{
													OFFSET -2.801605 0.000000 -0.000000
													CHANNELS 3 Xrotation Yrotation Zrotation
													JOINT RightHandIndex4
													{
														OFFSET -2.363510 0.000000 -0.000000
														CHANNELS 3 Xrotation Yrotation Zrotation
														End Site
														{
															OFFSET 0.000000 0.000000 0.000000
														}
													}
												}
											}
										}
										JOINT RightHandMiddle1
										{
											OFFSET -7.311607 0.000000 -0.000001
											CHANNELS 3 Xrotation Yrotation Zrotation
											JOINT RightHandMiddle2
											{
												OFFSET -3.311111 0.000000 -0.000000
												CHANNELS 3 Xrotation Yrotation Zrotation
												JOINT RightHandMiddle3
												{
													OFFSET -3.189102 0.000000 -0.000000
													CHANNELS 3 Xrotation Yrotation Zrotation
													JOINT RightHandMiddle4
													{
														OFFSET -2.691513 0.000000 -0.000000
														CHANNELS 3 Xrotation Yrotation Zrotation
														End Site
														{
															OFFSET 0.000000 0.000000 0.000000
														}
													}
												}
											}
										}
										JOINT RightHandRing1
										{
											OFFSET -7.330318 -0.067268 -1.836789
											CHANNELS 3 Xrotation Yrotation Zrotation
											JOINT RightHandRing2
											{
												OFFSET -2.815502 0.000000 -0.000000
												CHANNELS 3 Xrotation Yrotation Zrotation
												JOINT RightHandRing3
												{
													OFFSET -2.735703 0.000000 -0.000000
													CHANNELS 3 Xrotation Yrotation Zrotation
													JOINT RightHandRing4
													{
														OFFSET -2.353203 0.000000 -0.000000
														CHANNELS 3 Xrotation Yrotation Zrotation
														End Site
														{
															OFFSET 0.000000 0.000000 0.000000
														}
													}
												}
											}
										}
										JOINT RightHandPinky1
										{
											OFFSET -7.114304 -0.155228 -3.255253
											CHANNELS 3 Xrotation Yrotation Zrotation
											JOINT RightHandPinky2
											{
												OFFSET -2.449303 0.000000 -0.000000
												CHANNELS 3 Xrotation Yrotation Zrotation
												JOINT RightHandPinky3
												{
													OFFSET -1.966011 0.000000 0.000000
													CHANNELS 3 Xrotation Yrotation Zrotation
													JOINT RightHandPinky4
													{
														OFFSET -1.612114 0.000000 0.000000
														CHANNELS 3 Xrotation Yrotation Zrotation
														End Site
														{
															OFFSET 0.000000 0.000000 0.000000
														}
													}
												}
											}
										}
									}
								}
							}
						}
					}
				}
			}
		}
	}
	JOINT LeftUpLeg
	{
		OFFSET 6.620200 -8.816803 -0.447200
		CHANNELS 3 Xrotation Yrotation Zrotation
		JOINT LeftLeg
		{
			OFFSET 1.065641 -36.165676 0.650849
			CHANNELS 3 Xrotation Yrotation Zrotation
			JOINT LeftFoot
			{
				OFFSET -1.065643 -46.239597 1.019059
				CHANNELS 3 Xrotation Yrotation Zrotation
				JOINT LeftToeBase
				{
					OFFSET -0.371092 -10.380516 12.650627
					CHANNELS 3 Xrotation Yrotation Zrotation
					JOINT LeftToe_End
					{
						OFFSET -0.094685 -0.116782 6.663305
						CHANNELS 3 Xrotation Yrotation Zrotation
						End Site
						{
							OFFSET 0.000000 0.000000 0.000000
						}
					}
				}
			}
		}
	}
	JOINT RightUpLeg
	{
		OFFSET -6.620200 -8.816803 -0.447200
		CHANNELS 3 Xrotation Yrotation Zrotation
		JOINT RightLeg
		{
			OFFSET -1.065604 -36.165672 0.753674
			CHANNELS 3 Xrotation Yrotation Zrotation
			JOINT RightFoot
			{
				OFFSET 1.065611 -46.239521 0.372126
				CHANNELS 3 Xrotation Yrotation Zrotation
				JOINT RightToeBase
				{
					OFFSET 0.371092 -10.380665 13.284518
					CHANNELS 3 Xrotation Yrotation Zrotation
					JOINT RightToe_End
					{
						OFFSET 0.094680 -0.116865 6.675905
						CHANNELS 3 Xrotation Yrotation Zrotation
						End Site
						{
							OFFSET 0.000000 0.000000 0.000000
						}
					}
				}
			}
		}
	}
}
MOTION
Frames: 4
Frame Time: 0.016667
0.065112 102.060776 0.059899 -3.753101 -5.219094 -3.645958 3.308673 1.539671 2.629333 1.162843 0.340799 1.562140 0.000000 0.000000 0.000000 1.137154 0.363603 1.557407 5.626312 -0.078963 0.451939 -7.563355 1.375628 -0.080155 0.000000 -0.000000 -0.000000 1.050454 -17.442302 -12.319384 0.000000 0.000000 0.000000 3.911587 -19.980030 -69.768805 -0.000003 -1.459356 0.000001 -33.230376 -1.364745 -6.186720 -0.663021 2.160305 4.832501 11.864152 25.422521 17.056912 -13.813956 3.537281 9.036006 -0.000002 -0.000001 -0.000003 0.020277 -0.966419 -7.593204 0.267550 1.751855 -17.365075 0.057547 0.819942 -8.028003 0.000001 0.000000 -0.000001 -0.076305 2.665770 -15.696827 0.268782 1.755805 -17.405516 0.300529 1.853970 -18.413341 -0.000000 0.000001 0.000001 0.138259 3.645292 -21.133230 0.386633 2.094790 -20.911905 0.283057 1.800636 -17.865007 0.000001 0.000001 -0.000002 0.926053 5.556766 -27.127879 0.268809 1.755834 -17.405887 0.241917 1.667702 -16.505874 -0.000000 -0.000001 0.000002 1.205892 15.344280 14.705175 0.000000 0.000000 0.000000 13.158850 27.555124 58.785157 0.000006 6.693726 -0.000010 -20.179092 -0.514084 6.782817 -1.655326 -0.173852 -4.218559 12.714132 -29.825595 -16.130848 -15.548919 -3.560174 -12.705073 -0.000001 -0.000001 0.000002 0.036553 1.262067 6.823633 0.213711 -1.396033 17.407036 0.046028 -0.653851 8.053206 -0.000001 -0.000000 -0.000002 -0.136222 -2.205104 14.998894 0.214439 -1.398345 17.436874 0.239763 -1.476527 18.446268 -0.000000 0.000000 -0.000002 0.030607 -3.075762 20.451031 0.308434 -1.668282 20.948516 0.225829 -1.434051 17.897085 -0.000001 0.000001 0.000002 0.743116 -4.888106 26.473337 0.214450 -1.398382 17.437242 0.193011 -1.328187 16.535823 -0.000002 -0.000004 -0.000001 -9.105597 15.142992 9.492068 12.832016 1.958922 4.192956 -1.035385 0.724034 -6.904861 -4.939614 -0.000004 -0.000003 -0.000000 -0.000001 -0.000000 2.043078 -10.352034 4.469349 8.210834 -9.810315 -3.282554 -6.042049 -1.734901 2.772335 -7.283199 0.000080 0.000036 0.000000 0.000001 -0.000000 
0.084843 102.052750 0.122229 -3.676628 -5.236838 -3.660129 3.308635 1.539954 2.630674 1.162842 0.340799 1.562140 0.000000 0.000000 0.000000 1.137153 0.363604 1.557407 5.601237 -0.078964 0.451940 -7.598878 1.390923 -0.096409 -0.000000 -0.000000 0.000000 1.050780 -17.462707 -12.303947 0.000000 0.000000 0.000000 3.900070 -19.983996 -69.772746 0.000010 -1.473064 -0.000011 -33.229905 -1.364818 -6.186730 -0.633067 2.190430 4.828647 11.860443 25.415884 17.070664 -13.826783 3.545613 9.048435 -0.000002 0.000000 -0.000001 0.029623 -0.961091 -7.661738 0.267564 1.751859 -17.365097 0.057542 0.819930 -8.028029 0.000001 0.000000 -0.000001 -0.079570 2.660723 -15.773695 0.268492 1.754867 -17.395904 0.300220 1.853029 -18.403680 0.000000 -0.000001 0.000000 0.138283 3.645295 -21.133210 0.386621 2.094787 -20.911883 0.283048 1.800630 -17.865005 -0.000001 0.000001 0.000003 0.933579 5.571548 -27.118858 0.266701 1.749086 -17.336811 0.239823 1.660633 -16.433956 0.000000 0.000000 -0.000001 1.205370 15.346194 14.705322 0.000000 0.000000 0.000000 13.173504 27.586791 58.742427 0.000021 6.729096 0.000001 -20.217174 -0.504488 6.799077 -1.657456 -0.151330 -4.202023 12.712124 -29.839252 -16.133433 -15.551321 -3.546388 -12.702022 -0.000003 -0.000001 -0.000003 0.035057 1.260079 6.847855 0.213713 -1.396028 17.407065 0.046040 -0.653857 8.053209 0.000001 0.000002 0.000005 -0.136234 -2.205571 15.004379 0.214445 -1.398346 17.436860 0.239780 -1.476528 18.446285 0.000001 -0.000002 -0.000001 0.033273 -3.083318 20.459811 0.308824 -1.669275 20.961659 0.226153 -1.435079 17.910288 0.000000 0.000003 -0.000001 0.744322 -4.889911 26.499455 0.214376 -1.398154 17.434362 0.192934 -1.327917 16.532417 0.000000 -0.000001 0.000000 -9.238931 15.132387 9.522814 12.996743 1.975841 4.192834 -1.173367 0.722119 -6.903632 -4.939609 -0.000010 -0.000003 0.000000 0.000001 0.000000 1.958310 -10.352180 4.458923 8.286127 -9.813220 -3.268660 -6.099136 -1.734144 2.797688 -7.291658 0.000094 0.000037 0.000000 0.000001 -0.000000 
0.104500 102.040611 0.186035 -3.597072 -5.252764 -3.674517 3.308612 1.540286 2.631522 1.162843 0.340799 1.562140 0.000000 0.000000 0.000000 1.137153 0.363602 1.557408 5.574783 -0.078963 0.451940 -7.645653 1.407599 -0.117335 -0.000000 0.000000 0.000000 1.050699 -17.487630 -12.286704 0.000000 0.000000 0.000000 3.889975 -19.987236 -69.780669 -0.000008 -1.493278 0.000005 -33.240659 -1.367454 -6.186817 -0.581844 2.204974 4.795464 11.851299 25.399652 17.104687 -13.840538 3.558864 9.054106 -0.000001 -0.000000 -0.000008 0.049523 -0.956819 -7.673096 0.267550 1.751847 -17.365087 0.057536 0.819940 -8.028021 -0.000000 0.000001 0.000002 -0.077532 2.667940 -15.773302 0.268356 1.754436 -17.391478 0.300077 1.852594 -18.399201 0.000001 -0.000001 -0.000003 0.138169 3.644857 -21.128852 0.386636 2.094780 -20.911891 0.283048 1.800630 -17.864990 0.000000 0.000002 0.000002 0.942347 5.587993 -27.143518 0.265642 1.745727 -17.302414 0.238769 1.657036 -16.397298 0.000001 -0.000000 0.000002 1.203262 15.353944 14.705841 0.000000 0.000000 0.000000 13.196995 27.614265 58.689698 0.000020 6.775202 0.000001 -20.265098 -0.488043 6.810905 -1.658025 -0.147758 -4.194071 12.705009 -29.822843 -16.132094 -15.551115 -3.547569 -12.702264 0.000001 -0.000002 -0.000003 0.038124 1.264132 6.798350 0.213721 -1.396032 17.407046 0.046031 -0.653852 8.053231 -0.000000 -0.000001 -0.000001 -0.135053 -2.202492 14.921021 0.214288 -1.397868 17.430626 0.239604 -1.476037 18.440035 -0.000000 -0.000002 -0.000003 0.036506 -3.089153 20.395657 0.307922 -1.666901 20.930329 0.225367 -1.432653 17.879079 0.000001 -0.000002 -0.000002 0.741538 -4.885693 26.438351 0.213971 -1.396820 17.417215 0.192526 -1.326565 16.515056 0.000001 -0.000000 -0.000001 -9.401311 15.116860 9.560709 13.206761 1.992488 4.192684 -1.332444 0.724261 -6.897180 -4.939605 -0.000008 0.000000 0.000000 -0.000001 0.000000 1.834450 -10.351934 4.442893 8.427279 -9.815058 -3.255399 -6.186164 -1.731270 2.828443 -7.299541 0.000081 0.000035 -0.000000 -0.000001 -0.000000 
0.124314 102.025169 0.252471 -3.515258 -5.267448 -3.689340 3.308594 1.540649 2.632187 1.162843 0.343082 1.562141 0.000000 0.000000 0.000000 1.137153 0.363603 1.557407 5.548183 -0.078964 0.451941 -7.700816 1.426736 -0.143652 -0.000000 -0.000000 0.000000 1.050678 -17.514097 -12.268308 0.000000 0.000000 0.000000 3.881282 -19.988800 -69.790142 -0.000015 -1.518450 -0.000011 -33.261440 -1.376655 -6.184226 -0.527014 2.206867 4.749663 11.840774 25.379858 17.144270 -13.852623 3.572551 9.055537 -0.000003 -0.000001 -0.000003 0.073525 -0.955793 -7.648818 0.267563 1.751855 -17.365092 0.057533 0.819935 -8.028017 0.000001 0.000000 -0.000000 -0.072540 2.681586 -15.724019 0.268315 1.754268 -17.389856 0.300019 1.852436 -18.397509 -0.000000 -0.000001 -0.000000 0.137999 3.644069 -21.121071 0.386861 2.095383 -20.918175 0.283222 1.801155 -17.870253 -0.000000 0.000001 -0.000001 0.951298 5.604261 -27.189286 0.265553 1.745466 -17.299773 0.238635 1.656593 -16.392807 0.000001 0.000000 0.000000 1.202147 15.372324 14.711626 0.000000 0.000000 0.000000 13.235330 27.637537 58.622134 0.000019 6.835048 -0.000004 -20.331520 -0.458454 6.814861 -1.657668 -0.155503 -4.191453 12.687104 -29.786844 -16.135675 -15.546665 -3.556636 -12.707466 0.000001 0.000001 -0.000001 0.043203 1.277122 6.706232 0.213714 -1.396033 17.407026 0.046035 -0.653848 8.053229 -0.000001 0.000001 -0.000001 -0.132435 -2.200783 14.791055 0.214061 -1.397120 17.420946 0.239354 -1.475292 18.430302 0.000000 -0.000000 -0.000003 0.039423 -3.092889 20.298766 0.306599 -1.663457 20.885187 0.224255 -1.429173 17.834064 0.000001 -0.000002 -0.000002 0.735066 -4.874956 26.337788 0.213579 -1.395535 17.400655 0.192137 -1.325253 16.498247 -0.000001 0.000000 0.000003 -9.585184 15.092193 9.603264 13.453550 2.013705 4.192518 -1.507151 0.727099 -6.890623 -4.939598 -0.000012 -0.000002 -0.000000 0.000000 -0.000000 1.681523 -10.351806 4.423259 8.618879 -9.818227 -3.243826 -6.296802 -1.727241 2.864568 -7.306958 0.000080 0.000035 -0.000000 -0.000002 -0.000000 
